<?xml version="1.0" encoding="UTF-8" standalone="no"?>
<svg
   xml:space="preserve"
   fill-rule="evenodd"
   stroke-linejoin="round"
   stroke-miterlimit="2"
   clip-rule="evenodd"
   viewBox="0 0 850 867"
   version="1.1"
   id="svg19"
   sodipodi:docname="balance.svg"
   inkscape:version="1.4 (e7c3feb100, 2024-10-09)"
   xmlns:inkscape="http://www.inkscape.org/namespaces/inkscape"
   xmlns:sodipodi="http://sodipodi.sourceforge.net/DTD/sodipodi-0.dtd"
   xmlns="http://www.w3.org/2000/svg"
   xmlns:svg="http://www.w3.org/2000/svg"><defs
   id="defs19" /><sodipodi:namedview
   id="namedview19"
   pagecolor="#ffffff"
   bordercolor="#000000"
   borderopacity="0.25"
   inkscape:showpageshadow="2"
   inkscape:pageopacity="0.0"
   inkscape:pagecheckerboard="0"
   inkscape:deskcolor="#d1d1d1"
   showgrid="false"
   inkscape:zoom="0.67529412"
   inkscape:cx="425"
   inkscape:cy="350.95819"
   inkscape:window-width="1536"
   inkscape:window-height="891"
   inkscape:window-x="0"
   inkscape:window-y="0"
   inkscape:window-maximized="1"
   inkscape:current-layer="svg19" />
  <g
   transform="scale(4.16667)"
   id="g19">
    <g
   fill-rule="nonzero"
   transform="translate(13.077 31.2275) scale(.78682)"
   id="g3">
      <path
   d="M3.677 153.26c26.074 14.616 59.097 13.799 84.945 0 2.137-1.289-28.239-4.633-42.613-4.633-25.685 0-42.799 2.552-42.332 4.633ZM46.57 42.411c.183 1.622.216 3.244 0 4.865 0 0 3.063-.042 3.063.661 0 .703-.383 13.442.721 14.716 1.104 1.274 1.803 1.01 2.312.33.51-.679 2.023-.58 2.193-.24.17.34.542 2.423-.541 3.124-1.511.977-5.276.949-5.616-2.703-.34-3.653-.33-6.788-1.742-6.788-.51 0-.48 1.741-.48 3.694 0 1.954.17 2.459.51 2.883.34.425.255 4.505 0 4.505h-2.553c-.254 0-.339-4.08 0-4.505.34-.424.511-.929.511-2.883 0-1.953.239-3.694-.27-3.694-1.532 0-1.342 2.805-1.682 6.457-.34 3.653-3.857 3.748-5.556 3.154-1.699-.595-.875-3.047-.721-3.394.23-.52 1.232-.079 1.862.3.728.439 1.449.944 2.553-.33 1.104-1.274 1.201-13.922 1.201-14.626 0-.703 2.793-.661 2.793-.661.071-1.622.299-3.243 0-4.865.73.399 1.106.232 1.442 0Zm-.781 5.856c-.815 0-1.472.144-1.472.331v2.282c0 .187.657.33 1.472.33s1.472-.143 1.472-.33v-2.282c0-.187-.657-.331-1.472-.331Z"
   id="path1" />
      <path
   d="M45.30461776 67.313577c1.53363896-1.49815486.65004703-.42742186.73346334.90464625l-.32341286 94.9647647M39.96 63.392c.214.065.255.592.111 1.157-.145.565-.454 1.168-.75 2.126-10.112 30.411-21.172 60.506-31.814 90.735M51.21 63.392c-.214.065-.255.592-.111 1.157.145.565.454 1.168.75 2.126 10.112 30.411 21.172 60.506 31.814 90.735"
   id="path2" />
      <path
   d="M3.677 153.5c28.452 12.577 59.097 10.061 84.945 0-.582 2.937-15.182 20.957-43.632 20.956-28.063-.001-41.312-18.918-41.312-20.956h-.001Z"
   id="path3" />
    </g>
    <path
   fill-rule="nonzero"
   d="M102.63298162 30.015144c-.24719455.05714809-.49366415.12596522-.72457331.19808971-.2740514.08604395-.51683085.19642265-.76321474.29974355-1.46591442.61804764-2.39659162 1.49901967-2.21843681 2.26962996l-.11790243 3.12944764c-5.24154266-1.61225409-15.22177536-.49848699-19.31172158.44705397-5.46262506 1.26288598-8.1573674 2.56450936-13.87669252 7.70899436-4.75601176 4.27668209-5.96457892 5.91828847-9.96310904 5.97072828-3.99853012.0524398-6.26688397-1.49061626-8.40591176-1.6934779-2.13996414-.20264515-4.62347988 2.61850233-4.662829 3.29735676-.04436284.75103346-.89953936.02153416-1.18000118-.43641244-.2804618-.4579466-3.53401397 2.5353047-3.06219267 3.8209785.47182129 1.28567382 4.53094258 4.17049896 4.64711862 2.50130463.11065893-1.59492613.71072336-1.88358399 1.42409813-1.43891894.72050813.44992062 3.1529053 1.14522754 4.01919764 3.38626255.86722867 2.24081855-.15239096 3.16799896-1.13316246 2.69736394-.9807715-.47063502-1.37654375-.71056412-1.69532075-1.33424343-.318777-.62367931-3.39728518 1.83393739-2.78607782 2.21640642.61192724.38131622 2.31139678 3.27802545 3.5472198 3.341501 1.2346702.0627557 1.59232877 1.55434501 1.74537306 2.21633952.1530443.6619945 2.10922032.05686258 2.07090513-.10887013-.0383152-.16573271-.3951055-2.37462682-.3951055-2.37462682s3.74905573-1.20407631 2.47348133-5.96639169c-1.2755744-4.76231537-4.2781804-5.62861872-3.19633802-6.2269212 1.08162591-.5992388 7.55407816 1.03817125 12.55875662.05574708 5.00352565-.98314404 10.5808336-7.50138583 19.51916388-9.56780845 6.63211747-1.533257 14.03282845.02764633 16.84173273 1.06301583l-.00102589 3.04620323c.10056738 1.65952805 1.79548885-.19512853 1.79883177-.12093588.0132155.26622867.96810887-.03640013 1.25211789-.0793723.23913502-.03654346.4907999-.08288836.73799445-.14003644l.11704288-.02705875.20505911-.04740693c.31929297-.07381627.63858593-.14763254.92963244-.24549663 1.84776654-.6047288 2.80972001 1.09436418 2.98699207.00090528l.00049468-2.38717326c2.07059557-2.16245832 6.44992853-8.3031327 13.082046-9.83638972 8.93833028-2.06642262 16.81065318 1.34244409 21.73891773.02949084 4.92711174-1.31367312 10.0241136-5.6257865 11.25900027-5.56209446 1.23560655.06253922-1.08302472 2.15904158-.13891574 6.99798733.94410898 4.83894576 4.84123019 4.27532805 4.84123019 4.27532805s.64986566 2.141139.68818085 2.30687171c.03831519.16573271 2.06159691-.14913287 1.90855262-.81112737-.15304429-.6619945-.48729429-2.15899557.59548443-2.75751451 1.08162592-.59923881 1.3381769-3.94815387 1.71970959-4.55914476.38225256-.6121437-3.46349575-1.46896475-3.47618417-.76865506-.01175208.70009322-.26299284 1.08960309-.93767576 1.94295707-.67468292.85335398-1.99779348.4677815-2.20209131-1.9262978-.20429783-2.3940793 1.6751645-4.08623057 2.12508513-4.8067387.44581786-.7126549 1.08266253-.70995391 1.882129.67456338.83702114 1.44882787 3.24802997-2.93180497 3.10673776-4.2938927-.14035587-1.36230419-4.37754771-2.62379548-4.42855132-2.0892185-.05006727.5343605-.4982802 1.56518605-.86778097.90983233-.33425173-.5924829-3.80400479-2.03731413-5.636944-.91618675-1.83387556 1.12134384-3.19385083 3.50322116-6.80966199 5.21111539-3.61581115 1.70789423-5.4232048.76353772-11.57277996-.99191828-7.39696762-2.11217324-10.41953564-2.0920308-15.8821607-.82914482-4.08994623.94554096-6.5059541 2.52697406-10.50798954 6.27621998l.11790243-3.12944764c-.20413121-.88297145-.79520245-1.34900672-2.72068172-1.08042507-.02967605.00390154-.05855667.0155103-.08801625.02034818-.2369754.03308501-.49202317.08613033-.73799445.14003644l-.43914487.10152443Z"
   id="path4" />
    <g
   fill-rule="nonzero"
   transform="translate(34.1704 5.60824) scale(.78682)"
   id="g7">
      <path
   d="M157 42.411c-.183 1.622-.216 3.244 0 4.865 0 0-3.063-.042-3.063.661 0 .703.383 13.442-.721 14.716-1.104 1.274-1.803 1.01-2.312.33-.51-.679-2.023-.58-2.193-.24-.17.34-.542 2.423.541 3.124 1.511.977 5.276.949 5.616-2.703.34-3.653.33-6.788 1.742-6.788.51 0 .48 1.741.48 3.694 0 1.954-.17 2.459-.51 2.883-.34.425-.255 4.505 0 4.505h2.553c.254 0 .339-4.08 0-4.505-.34-.424-.511-.929-.511-2.883 0-1.953-.239-3.694.27-3.694 1.532 0 1.342 2.805 1.682 6.457.34 3.653 3.857 3.748 5.556 3.154 1.699-.595.875-3.047.721-3.394-.23-.52-1.232-.079-1.862.3-.728.439-1.449.944-2.553-.33-1.104-1.274-1.201-13.922-1.201-14.626 0-.703-2.793-.661-2.793-.661-.071-1.622-.299-3.243 0-4.865-.73.399-1.106.232-1.442 0Zm.781 5.856c.815 0 1.472.144 1.472.331v2.282c0 .187-.657.33-1.472.33s-1.472-.143-1.472-.33v-2.282c0-.187.657-.331 1.472-.331ZM116 153.26c26.074 14.616 59.097 13.799 84.945 0 2.137-1.289-28.239-4.633-42.613-4.633-25.685 0-42.799 2.552-42.332 4.633Z"
   id="path5" />
      <path
   d="M158.12079408 66.85967931c-1.32948373.80980271-.38620445-.73432405-.47939797.59809546l.2102197 95.7240407M152.28 63.392c.214.065.255.592.111 1.157-.145.565-.454 1.168-.75 2.126-10.112 30.411-21.172 60.506-31.814 90.735m43.703-94.018c-.214.065-.255.592-.111 1.157.145.565.454 1.168.75 2.126 10.112 30.411 21.172 60.506 31.814 90.735"
   id="path6" />
      <path
   d="M116 153.5c28.453 12.577 59.097 10.061 84.945 0-.581 2.937-15.182 20.957-43.632 20.956C129.25 174.455 116 155.538 116 153.5Z"
   id="path7" />
    </g>
    <g
   transform="translate(.220942 .0259173)"
   id="g18">
      <path
   fill-rule="nonzero"
   d="M64.55 189.23s-.237-4.016 5.885-4.103c6.121-.087 59.625 0 63.618 0 3.994 0 4.99 2.733 4.956 4.121-.086 3.413-27.606 10.527-27.615 10.379l-36.466-2.922c-3.46-2.492-8.358-2.441-10.378-7.475Z"
   id="path8" />
      <path
   fill-rule="nonzero"
   d="M64.575 188.76v7.804c-.263 8.234 74.427 8.64 74.409 0v-7.804c.071 8.686-74.559 8.7-74.409 0Z"
   id="path9" />
      <path
   fill-rule="nonzero"
   d="M69.433 183.4c.098-1.422 10.075-5.111 31.326-5.111 21.366 0 33.367 2.937 33.367 5.219 0 .552-6.569 5.034-6.569 5.034l-27.474 2.64-30.236-4.912-.414-2.87Z"
   id="path10" />
      <path
   fill-rule="nonzero"
   d="M69.443 183.2v5.66c.118 5.191 64.688 5.92 64.672 0v-5.66c-.024 5.606-64.629 5.528-64.672 0Z"
   id="path11" />
      <path
   fill-rule="nonzero"
   d="M116.3 183.77s-9.13-.961-11.292-2.403c-2.162-1.441-1.682-1.562-3.904-1.562-2.223 0-1.742.121-3.904 1.562-2.163 1.442-11.292 2.403-11.292 2.403"
   id="path12" />
      <path
   fill-rule="nonzero"
   d="m93.93 175.22 15.697.024c.116.613-5.005 5.123-6.67 5.035l-3.216-.019c-1.89.06-5.829-4.787-5.811-5.04Zm4.536-152.073v-3.436c2.388-1.039 4.239-2.315 6.626 0v3.101l-6.626.335Z"
   id="path13" />
      <path
   fill-rule="nonzero"
   d="M101.55 22.338c-.264 0-.53.012-.78.031-.297.023-.569.077-.842.125-1.627.282-2.774.955-2.774 1.775v15.167c0 .82 1.147 1.493 2.774 1.775.273.047.545.102.842.125.25.019.516.031.78.031h.342c.34 0 .68 0 .998-.031 2.01-.179 3.523-.961 3.523-1.9V24.269c0-.94-1.513-1.721-3.523-1.9-.031-.003-.063.003-.093 0-.249-.022-.518-.028-.78-.031h-.467ZM97.766 172.44V47.27l8.027-.042-.043 126.06-7.984-.85v.002Z"
   id="path14" />
      <path
   fill-rule="nonzero"
   d="m93.93 175.23 15.697-.024c.116-.613-5.005-5.123-6.67-5.035l-3.216.019c-1.89-.06-5.829 4.787-5.811 5.04Zm3.644-128.143h8.219s-1.325-2.27-4.125-2.27-4.094 2.158-4.094 2.27Zm0-4.4564103h8.409s-1.515-2.413237-4.315-2.413237c-2.8 0-4.094 2.2941698-4.094 2.413237Z"
   id="path15" />
      <path
   fill-rule="nonzero"
   d="M97.574 38.039h8.409s-1.515 2.27-4.315 2.27c-2.8 0-4.094-2.158-4.094-2.27Zm1.898-23.423v2.553s-.159.082-.18.09c-.006.002-.053-.003-.06 0-.99.175-2.375.52-2.823 1.021-.18.2-.133.336 0 .51.264.349 2.587 1.442 5.195 1.442.049 0 .101.001.15 0 .059.002.122 0 .181 0 2.607 0 4.924-1.092 5.195-1.442.215-.277.149-.327 0-.51-.281-.346-1.84-.848-2.823-1.021-.004-.002-.027.001-.03 0-.027-.011-.21-.09-.21-.09v-2.553h-4.595Z"
   id="path16" />
      <path
   fill-rule="nonzero"
   d="M107.32 10.596c0 3.039-2.501 5.541-5.541 5.541-3.039 0-5.54-2.502-5.54-5.541 0-3.039 2.501-5.541 5.54-5.541 3.04 0 5.541 2.502 5.541 5.541Z"
   id="path17" />
      <path
   d="M108.098862 33.95933c0-1.744-1.416-3.16-3.16-3.16h-6.32c-1.743 0-3.159 1.416-3.159 3.16v12.537c0 1.744 1.416 3.159 3.159 3.159h6.32c1.744 0 3.16-1.415 3.16-3.159v-12.537Z"
   id="path18" />
    </g>
  </g>
</svg>
