<?xml version="1.0" encoding="UTF-8" standalone="no"?>
<svg
   viewBox="0 0 360 240"
   width="360"
   height="240"
   version="1.1"
   id="svg2"
   sodipodi:docname="beaver.svg"
   inkscape:version="1.4 (e7c3feb100, 2024-10-09)"
   xmlns:inkscape="http://www.inkscape.org/namespaces/inkscape"
   xmlns:sodipodi="http://sodipodi.sourceforge.net/DTD/sodipodi-0.dtd"
   xmlns="http://www.w3.org/2000/svg"
   xmlns:svg="http://www.w3.org/2000/svg"
   xmlns:rdf="http://www.w3.org/1999/02/22-rdf-syntax-ns#"
   xmlns:cc="http://creativecommons.org/ns#"
   xmlns:dc="http://purl.org/dc/elements/1.1/">
  <metadata
     id="metadata7">
    <rdf:RDF>
      <cc:Work
         rdf:about="">
        <dc:format>image/svg+xml</dc:format>
        <dc:type
           rdf:resource="http://purl.org/dc/dcmitype/StillImage" />
      </cc:Work>
    </rdf:RDF>
  </metadata>
  <defs
     id="defs2" />
  <sodipodi:namedview
     id="namedview2"
     pagecolor="#ffffff"
     bordercolor="#000000"
     borderopacity="0.25"
     inkscape:showpageshadow="2"
     inkscape:pageopacity="0.0"
     inkscape:pagecheckerboard="0"
     inkscape:deskcolor="#d1d1d1"
     inkscape:zoom="0.97513581"
     inkscape:cx="168.69445"
     inkscape:cy="106.65181"
     inkscape:window-width="1536"
     inkscape:window-height="891"
     inkscape:window-x="0"
     inkscape:window-y="0"
     inkscape:window-maximized="1"
     inkscape:current-layer="svg2"
     showgrid="false" />
  <path
     fill="#002a86"
     d="M0 0h360v240H0z"
     id="path1"
     style="fill:#ffffff;fill-opacity:1" />
  <path
     style="fill:#ffd700;fill-opacity:1;stroke:#1a1a1a;stroke-width:2.23731;stroke-dasharray:none;stroke-opacity:1"
     d="m 163.23579,48.000903 c 59.61322,-0.102238 90.79814,65.439147 90.79814,65.439147 0,0 5.51272,12.23456 24.54333,16.77004 19.73474,4.70367 39.95423,2.32602 49.48961,8.58895 3.38427,2.22294 14.11344,12.37644 12.68192,22.49926 -1.84316,13.03411 -14.64299,31.21105 -35.09378,27.22343 -20.45052,-3.98792 -37.72306,-29.54218 -45.89187,-41.54157 -2.26393,-3.3255 -12.616,-2.20252 -17.98388,-1.37405 -0.87413,-6.12994 -2.60496,-13.078 -6.63227,-19.59096 -2.32541,-3.76036 -6.1419,-5.8797 -6.1419,-5.8797 0,0 1.95607,3.8446 4.02501,7.19063 2.41107,3.89914 3.95694,7.97999 4.98149,11.96335 -1.63246,-3.64555 -3.83801,-7.32748 -7.20035,-10.20575 -4.17065,-3.55949 -9.32209,-3.43751 -9.32209,-3.43751 0,0 4.33311,2.42965 7.70528,5.32621 4.84474,4.1471 7.9285,15.32558 7.81212,15.33776 2.278,8.03067 -2.19457,12.5314 -2.19457,12.5314 l -86.30217,0.41271 c 0,0 -0.51048,-4.09314 8.18112,-5.72921 8.69128,-1.63607 26.58252,-0.81567 26.58252,-0.81567 l 0.4661,-2.33053 c -14.42256,0.76864 -29.77781,1.3034 -43.81869,1.10215 -6.63313,-0.0952 -12.74731,-0.40162 -18.64419,-0.77199 0.18619,-2.95717 1.30363,-10.0271 -1.34488,-16.93999 -2.01422,-5.24505 -6.66142,-7.72957 -6.66142,-7.72957 0,0 2.69656,4.3155 4.34059,8.61808 2.43109,6.34539 1.34423,10.71996 0.0485,15.83784 -0.73956,2.92136 -0.50305,5.38971 -4.32603,7.93834 -6.44201,4.29467 -21.6787,1.22838 -21.6787,1.22838 3.86756,-2.23152 7.44281,-4.17021 10.22516,-5.3165 0,0 1.86547,-3.2672 1.7576,-5.04462 -0.31228,-5.1454 -3.08548,-9.73082 -6.81678,-13.88116 -2.58056,-2.86504 -6.26328,-4.09785 -6.26328,-4.09785 0,0 2.11825,3.20026 4.41343,5.75835 3.2945,3.66435 4.92312,7.33245 4.95236,11.76428 -19.844992,-2.26594 -32.549629,-4.33574 -32.549629,-4.33574 l -19.891974,-3.66087 c 0,0 -4.514158,-0.88339 -9.166727,-2.65584 l -1.034105,4.00559 -2.175154,0.62148 c 0,0 0.329283,-2.99137 0.597192,-5.73405 -4.820598,-2.2652 -8.911922,-5.57628 -7.035245,-10.14749 3.987609,-9.71414 12.921676,-16.45108 22.907077,-23.31007 6.560078,-4.506424 16.15482,-1.53683 24.130618,-5.729234 7.975807,-4.19238 10.839007,-10.430003 13.497617,-13.497593 16.49647,-19.034478 32.19057,-36.328577 74.03293,-36.39986 z m -22.16909,5.481583 c -1.15763,-0.0024 -2.31004,0.02262 -3.42295,0.08253 -2.69767,0.08763 -4.97889,0.311488 -6.94788,1.189539 -1.76176,0.785703 -2.4956,1.830431 -2.4956,1.830431 0,0 1.01166,-0.771001 2.72866,-1.131275 1.72853,-0.362734 4.29356,-0.211151 6.79736,-0.398132 2.89688,-0.156089 6.05222,-0.08877 8.92394,0.165088 2.17908,0.207472 4.34797,0.22987 5.93313,0.456392 1.57874,0.22562 2.62184,0.597198 2.62184,0.597198 0,0 -0.86076,-0.701789 -2.43249,-1.315775 -1.70494,-0.666099 -3.67111,-1.034352 -5.99137,-1.223525 -1.83454,-0.162156 -3.78524,-0.248589 -5.71464,-0.252473 z m 48.30979,5.714636 c -0.57196,0.0045 -1.12771,0.03272 -1.6702,0.09225 -1.99886,0.219381 -3.19962,0.786552 -3.19962,0.786552 0,0 1.31234,-0.203396 3.21419,-0.0437 2.38493,0.200264 3.95423,0.679502 7.00126,1.262366 2.79211,0.553603 5.68458,1.362606 8.25395,2.325667 2.42086,0.932192 3.66564,1.228179 5.45246,2.131458 1.39861,0.707049 2.23339,1.427446 2.23339,1.427446 0,0 -0.54114,-0.962326 -1.82071,-2.044064 -1.38036,-1.166963 -3.16663,-2.120224 -5.34079,-2.913153 -2.64643,-0.99203 -5.62629,-1.821604 -8.48698,-2.388785 -2.0603,-0.422947 -3.92107,-0.649274 -5.63695,-0.63604 z m -56.13159,0.737999 c -1.29001,-0.01041 -2.58265,0.03232 -3.8211,0.131081 -2.32978,0.141746 -4.34712,0.543593 -5.97682,1.403168 -1.49267,0.787274 -2.11689,1.709051 -2.11689,1.709051 0,0 0.89795,-0.652091 2.38392,-1.024461 1.88085,-0.471323 3.25732,-0.348293 5.83116,-0.60205 2.39284,-0.190842 4.98058,-0.165884 7.37999,0.0534 1.90606,0.185895 3.80095,0.250709 5.19998,0.46125 1.39397,0.209784 2.33053,0.519511 2.33053,0.519511 0,0 -0.75122,-0.639013 -2.12174,-1.233233 -1.46195,-0.633875 -3.23396,-1.05927 -5.27281,-1.233235 -1.23747,-0.113088 -2.52624,-0.173938 -3.81622,-0.184503 z m -12.79362,6.151607 c -0.92368,-0.0025 -1.84539,0.04345 -2.73836,0.131081 -2.29181,0.165286 -4.31257,0.744334 -5.7826,1.757601 -1.36204,0.938832 -1.78188,1.946952 -1.78188,1.946952 0,0 0.74323,-0.792006 2.12175,-1.301202 1.63745,-0.604916 3.22418,-0.622492 5.58838,-0.917644 2.2601,-0.221916 4.68696,-0.145524 6.85564,0.24762 1.95672,0.40248 3.29133,0.5646 4.64648,1.170119 1.15288,0.515125 1.79159,1.199247 1.79159,1.199247 0,0 -0.30751,-0.888757 -1.39347,-1.815865 -1.15828,-0.988885 -2.83154,-1.71218 -4.77756,-2.019787 -1.44143,-0.261316 -2.99048,-0.393852 -4.52997,-0.398132 z m 80.29621,0.704015 c -0.57195,0.0045 -1.1277,0.03757 -1.67018,0.0971 -1.99886,0.219379 -3.19963,0.781696 -3.19963,0.781696 0,0 1.31234,-0.203397 3.21419,-0.0437 2.38493,0.200263 3.95402,0.684355 7.00127,1.267222 2.7921,0.5536 5.68457,1.357766 8.25394,2.3208 2.42067,0.932209 3.66565,1.228204 5.45246,2.131478 1.39841,0.707037 2.23339,1.427448 2.23339,1.427448 0,0 -0.54115,-0.962363 -1.8207,-2.044074 -1.38037,-1.166977 -3.16663,-2.120216 -5.3408,-2.913156 -2.64663,-0.992007 -5.62628,-1.82158 -8.48698,-2.388784 -2.06032,-0.422945 -3.92106,-0.649275 -5.63696,-0.636038 z m -86.23418,5.525285 c -1.32739,-0.005 -2.66611,0.09049 -3.94247,0.276755 -1.95824,0.261192 -3.64086,0.884057 -4.90867,1.733312 -1.19254,0.79884 -1.70418,1.592537 -1.70418,1.592537 0,0 0.78098,-0.522436 2.02948,-0.927362 1.48611,-0.48199 2.77988,-0.601015 4.80186,-0.92249 1.92584,-0.281055 4.00004,-0.336664 5.94768,-0.150396 1.87116,0.192657 2.97592,0.240137 4.41343,0.543789 1.18437,0.250105 1.97608,0.577771 1.97608,0.577771 0,0 -0.57546,-0.63783 -1.7139,-1.272081 -1.19748,-0.667114 -2.75493,-1.177715 -4.53481,-1.335196 -0.77504,-0.07408 -1.56808,-0.113351 -2.3645,-0.116594 z m 93.2986,1.11184 c -0.57197,0.005 -1.12774,0.03754 -1.67023,0.0972 -1.99866,0.219255 -3.20446,0.781714 -3.20446,0.781714 0,0 1.31232,-0.198623 3.21418,-0.03878 2.38494,0.200362 3.95891,0.679493 7.00614,1.262359 2.7921,0.553584 5.68458,1.357769 8.25392,2.320804 2.42089,0.932208 3.66567,1.228203 5.45246,2.131477 1.39863,0.707037 2.23342,1.432296 2.23342,1.432296 0,0 -0.54117,-0.967186 -1.82071,-2.048922 -1.38037,-1.166951 -3.17151,-2.115392 -5.34565,-2.908293 -2.64661,-0.992044 -5.62143,-1.821586 -8.48212,-2.388792 -2.06033,-0.422949 -3.92107,-0.654138 -5.63695,-0.640887 z m -102.64982,6.030249 c -1.1154,-0.01239 -2.19577,0.158352 -3.23846,0.495214 -2.93257,0.959057 -4.36002,3.515224 -4.36002,3.515224 0,0 2.47798,-1.353319 4.81642,-2.097471 1.01901,-0.329132 2.07952,-0.472394 3.17533,-0.407859 2.21664,0.122051 4.74844,0.640912 4.74844,0.640912 0,0 -1.83881,-1.951077 -4.66105,-2.126605 -0.16083,-0.0099 -0.32132,-0.0174 -0.48066,-0.01989 z m 109.50058,1.106992 c -0.57196,0.005 -1.12772,0.03281 -1.67022,0.09222 -1.99886,0.219505 -3.20446,0.781688 -3.20446,0.781688 0,0 1.31232,-0.198622 3.21417,-0.03878 2.38495,0.200363 3.95892,0.679494 7.00614,1.26236 2.79211,0.553609 5.68459,1.357769 8.25392,2.320829 2.4209,0.932184 3.66569,1.233026 5.45246,2.136299 1.39864,0.707062 2.23343,1.427448 2.23343,1.427448 0,0 -0.54118,-0.962313 -1.82072,-2.044072 -1.38036,-1.166928 -3.1715,-2.120218 -5.34563,-2.913142 -2.64665,-0.99202 -5.62145,-1.821611 -8.48214,-2.388792 -2.06032,-0.42295 -3.92106,-0.649266 -5.63695,-0.63604 z m 5.3602,7.166351 c -0.19762,-0.0011 -0.3929,0.0022 -0.58749,0.01491 -1.41833,0.08899 -2.22855,0.543788 -2.22855,0.543788 0,0 0.92162,-0.08899 2.17515,0.194149 1.26348,0.285405 2.91364,1.028363 4.67561,1.514852 4.71902,1.39277 10.42059,3.8894 14.11906,6.486608 1.64253,1.153454 4.7331,4.728883 4.70476,4.704773 -1.38037,-1.16698 -3.16663,-2.120241 -5.34079,-2.913191 -2.64663,-0.991994 -5.62629,-1.821586 -8.48698,-2.388767 -2.74708,-0.563924 -5.13235,-0.777115 -7.30231,-0.538941 -1.99885,0.219504 -3.20446,0.781688 -3.20446,0.781688 0,0 1.31233,-0.198622 3.21419,-0.03878 2.38493,0.200363 3.95403,0.679519 7.00126,1.262386 2.7921,0.553557 5.68459,1.357768 8.25395,2.320802 2.42086,0.932183 3.67052,1.228183 5.45731,2.131453 0.75727,0.38283 1.33019,0.75994 1.71389,1.03418 0.95797,1.27999 1.84935,2.56927 2.64126,3.72884 1.33365,1.96201 3.31616,3.37439 3.31616,3.37439 0,0 -0.77433,-2.3068 -2.08291,-4.21435 -2.3166,-3.3921 -5.64924,-8.088443 -9.0308,-10.463092 -3.81013,-2.67559 -9.75518,-5.284831 -14.55118,-6.700248 -1.60747,-0.506351 -3.07326,-0.827577 -4.45713,-0.83511 z M 69.670173,105.69105 c -1.463069,0.005 -2.688785,0.90057 -3.223903,1.79161 -0.640415,1.06635 -0.267026,1.77701 -0.267026,1.77701 0,0 0.323154,-0.68603 1.058439,-0.93221 0.763968,-0.25579 1.906745,-0.0984 2.898601,-0.0875 1.310239,0.19763 2.126698,0.84391 1.961516,1.63137 -0.09913,1.01101 -0.866563,2.06682 -1.597393,3.04424 -0.702303,0.93932 -1.2138,1.62652 -1.2138,1.62652 0,0 0.822431,-0.10689 1.995499,-0.61175 1.15489,-0.49698 2.702877,-1.51883 3.248184,-3.54436 0.562801,-2.68349 -1.803267,-4.26768 -4.025032,-4.60277 -0.284016,-0.0656 -0.564144,-0.0932 -0.835085,-0.0922 z m 98.644227,10.18149 c -0.13399,-0.002 -0.26904,-0.002 -0.40298,0 l -4.62706,0.0534 c -3.97172,0.0475 -7.9335,0.83996 -7.9335,0.83996 0,0 3.9812,0.69809 7.9529,0.65061 l 4.62222,-0.0535 6.43322,-0.0776 c -2.02035,-0.90817 -4.03491,-1.37862 -6.0448,-1.41288 z m -116.118302,1.15554 c -2.230979,0 -4.039572,1.39121 -4.039572,3.10737 0,1.71616 1.808593,3.10736 4.039572,3.10736 2.230992,0 4.039572,-1.3912 4.039572,-3.10736 0,-1.71616 -1.80858,-3.10737 -4.039572,-3.10737 z m 112.874982,2.68009 -4.38429,0.0199 c -3.76501,0.0174 -7.52566,0.78169 -7.52566,0.78169 0,0 3.77053,0.72675 7.53536,0.70888 l 4.38432,-0.0199 c 3.04737,-0.0149 6.08847,-0.77197 6.08848,-0.77197 0,0 -3.0508,-0.73292 -6.09821,-0.7186 z m 11.12824,2.18972 -2.94227,0.0149 c -4.92836,0.0224 -9.85619,0.78656 -9.85617,0.78656 0,0 4.93269,0.72578 9.86102,0.70401 l 2.94714,-0.0149 c 3.27447,-0.0149 6.54488,-0.77197 6.54488,-0.77197 0,0 -3.28013,-0.73307 -6.5546,-0.7186 z m -105.378448,2.85005 c -1.817741,0.008 -4.776241,0.12752 -7.637327,0.72342 l -8.763744,1.82559 c -0.773078,0.16108 -1.291494,1.53911 -1.291494,1.53911 0,0 1.028212,1.05429 1.801303,0.89338 l 8.758893,-1.82559 c 4.577722,-0.95341 8.904527,-3.12193 8.904527,-3.12193 0,0 -0.68153,-0.038 -1.772158,-0.0341 z m 94.900828,0.37385 -5.03978,0.005 c -4.32592,0.003 -8.65205,0.75258 -8.65205,0.75258 0,0 4.32613,0.74112 8.65205,0.73799 l 5.03978,-0.005 c 3.50151,-0.002 7.00126,-0.74771 7.00129,-0.74771 -3e-5,0 -3.49978,-0.74539 -7.00129,-0.74286 z m 13.96857,1.93239 -4.3843,0.0199 c -3.765,0.0174 -7.52566,0.78168 -7.52566,0.78168 0,0 3.77052,0.72675 7.53535,0.70886 l 4.38432,-0.0199 c 3.04723,-0.0149 6.08847,-0.77684 6.08847,-0.77684 0,0 -3.05079,-0.72819 -6.09818,-0.71372 z m -12.57512,2.37907 c -0.19712,-0.003 -0.3944,-0.003 -0.59235,0 l -4.55423,0.0534 c -3.91265,0.0475 -7.81696,0.83996 -7.81696,0.83996 0,0 3.91888,0.69798 7.83152,0.65061 l 4.5591,-0.0534 c 3.16691,-0.0382 6.32155,-0.82538 6.32155,-0.82538 0,0 -2.79042,-0.61906 -5.74863,-0.66517 z m -101.805,2.38395 c -1.07369,-0.003 -2.213118,0.0401 -3.345269,0.16033 l -14.75513,1.56826 c 0.900019,0.65962 1.814656,1.29907 2.743227,1.91783 4.670865,3.11847 8.52713,4.93625 12.575112,6.70994 3.438702,1.50693 7.37999,1.88871 7.37999,1.88871 0,0 -2.93186,-2.65508 -6.379816,-4.16581 -3.068793,-1.34471 -5.976938,-2.70164 -9.186144,-4.60765 l 7.884948,-0.83996 c 4.528475,-0.48054 8.923957,-2.19469 8.923957,-2.19469 0,0 -2.619831,-0.42705 -5.840875,-0.43696 z m 105.05318,1.5925 -4.64163,0.0199 c -3.98648,0.0174 -7.96748,0.78169 -7.96748,0.78169 0,0 3.98584,0.72628 7.97232,0.70888 l 4.64164,-0.0199 6.45749,-0.0291 c -2.15559,-0.98471 -4.31123,-1.47137 -6.46234,-1.46143 z m -0.19416,3.96189 c -3.55828,-0.0119 -7.1178,0.72345 -7.1178,0.72345 0,0 3.55467,0.76033 7.11296,0.77199 l 4.14152,0.0105 c 2.8801,0.0105 5.76318,-0.72342 5.76318,-0.72342 0,0 -2.87823,-0.75772 -5.75831,-0.76715 z m 95.31839,1.01962 c 0,0 4.02535,3.02645 8.47241,4.98149 4.60663,2.02504 9.19586,4.16874 13.77921,6.64683 3.92955,2.12481 8.42389,3.50551 8.42386,3.50551 3e-5,0 -3.17289,-3.49417 -7.24403,-5.69523 -4.66375,-2.52153 -9.31833,-4.69428 -13.95885,-6.73422 -4.48645,-1.97214 -9.4726,-2.70438 -9.4726,-2.70438 z m 32.57391,0.89822 c 0,0 -1.34156,0.77647 -2.04407,1.9421 l -1.91782,3.18506 c -0.78606,1.30427 -0.93708,2.99568 -0.93708,2.99568 0,0 1.42794,-0.91944 2.21401,-2.22372 l 1.91781,-3.18502 c 0.70252,-1.16564 0.76715,-2.7141 0.76715,-2.7141 z m 11.58462,0.34957 c 0,0 -1.64001,1.32702 -2.63638,3.02967 l -2.72381,4.65136 c -1.11487,1.90516 -1.58767,4.19007 -1.58767,4.19007 0,0 1.75944,-1.53233 2.87431,-3.43752 l 2.7238,-4.65133 c 0.99636,-1.70267 1.34975,-3.78225 1.34975,-3.78225 z m -6.36037,0.21354 c 0,0 -1.46272,1.00994 -2.28682,2.39848 l -2.25284,3.79199 c -0.92214,1.55363 -1.20412,3.48606 -1.20412,3.48606 0,0 1.56378,-1.17011 2.4859,-2.72379 l 2.25283,-3.79683 c 0.82413,-1.38854 1.00505,-3.15591 1.00505,-3.15591 z m -126.2755,2.43249 -3.26758,0.005 c -2.80526,0.003 -5.60782,0.74772 -5.60782,0.74772 0,0 2.80757,0.74596 5.61267,0.74285 l 3.26273,-0.005 c 2.27062,-0.003 4.54453,-0.75258 4.54453,-0.75258 0,0 -2.27391,-0.74051 -4.54453,-0.73798 z m 8.92398,2.89857 -3.26759,0.005 c -2.80527,0.003 -5.61268,0.75257 -5.61268,0.75257 0,0 2.80741,0.74113 5.61268,0.73799 h 3.26759 c 2.27043,-0.003 4.53958,-0.75258 4.53958,-0.75258 0,0 -2.26907,-0.74537 -4.53966,-0.74285 z m 137.97663,0.034 c 0,0 -1.75191,1.49949 -2.85974,3.37442 l -3.0248,5.12227 c -1.2396,2.09795 -1.83529,4.57368 -1.83529,4.57368 0,0 1.87747,-1.71832 3.11706,-3.81625 l 3.02967,-5.1223 c 1.10785,-1.87494 1.5731,-4.13182 1.5731,-4.13182 z m -281.279512,2.18002 c 5.811044,0.043 11.891947,0.99386 15.910665,2.21886 6.59472,5.24851 8.779154,11.32632 15.405735,13.05578 1.851671,1.23444 123.565952,-1.16246 176.872102,-0.34472 14.95738,0.22944 33.81687,23.54313 33.81687,23.54313 0,0 -1.07072,2.87941 -3.01998,3.01995 -18.13514,1.29995 -60.38003,1.78192 -60.38003,1.78192 0,0 -0.2108,-1.36503 0.71024,-4.45019 2.01979,-3.18506 7.36891,-8.29 7.36891,-8.29 l -4.03958,-0.31074 -5.90399,4.66105 c -0.31946,-1.95927 0.49345,-5.05092 0.93221,-7.76841 l -3.4181,0.62147 -0.93221,7.45767 c -1.49938,-1.36824 -2.30415,-3.01434 -7.7684,-2.79662 l 4.03957,5.28251 0.20384,6.15161 c -17.0198,0.12128 -34.34332,-0.0435 -51.52881,-0.35443 l 0.98568,-6.41865 c 0,0 5.35081,-1.26181 6.52546,-3.4181 0.5473,-1.00467 -0.31074,-3.4181 -0.31074,-3.4181 0,0 -1.10443,2.43498 -2.17515,3.10736 -1.38963,0.87264 -4.86012,0.7914 -4.86012,0.7914 l 2.9957,-6.38465 c 0,0 -2.69602,-0.38852 -3.72884,0.31074 -0.95892,0.64923 -1.55368,3.10736 -1.55368,3.10736 l -2.79662,-4.03957 -1.55368,6.21472 -6.21473,-3.10736 3.4181,8.70062 0.59718,4.36487 c -20.6449,-0.4479 -40.75842,-1.07654 -58.83111,-1.8887 l 4.78727,-8.38016 -5.59325,2.79662 -1.24295,-9.32208 -1.86441,9.63282 -6.21473,-3.10736 c 0,0 2.38864,2.00363 2.79663,3.4181 0.42399,1.46991 -0.56808,4.55422 -0.56808,4.55422 -8.752628,-0.42499 -17.226028,-0.85241 -24.718104,-1.3109 l 6.95274,-9.45805 c 0,0 -3.458278,-0.37227 -4.971794,0.31074 -0.934608,0.42175 -2.175154,2.17515 -2.175154,2.17515 l -4.039572,-4.97178 c 0,0 -0.661638,2.73545 -0.310736,4.03957 0.257811,0.95817 1.686858,2.45261 1.686858,2.45261 l -0.511866,5.2187 c -16.144446,-1.02689 -29.236669,-2.08313 -36.132832,-2.99085 -3.619452,-0.47641 3.272453,-8.81094 5.034909,-17.11964 1.762442,-8.30844 0.504259,-11.70844 2.014928,-16.11459 2.950354,-2.40378 8.492778,-3.26681 14.303571,-3.22387 z m 284.809242,2.34024 c 0,0 -1.56977,1.12141 -2.50534,2.63157 l -2.55385,4.1221 c -1.04684,1.68977 -1.46144,3.77255 -1.46144,3.77255 0,0 1.68181,-1.29623 2.72866,-2.98599 l 2.55386,-4.12696 c 0.93557,-1.51016 1.23811,-3.41327 1.23811,-3.41327 z m -43.22149,4.17068 c 0,0 -1.28583,0.71632 -1.92754,1.81101 l -1.75275,2.99085 c -0.71806,1.22489 -0.79141,2.82575 -0.79141,2.82575 0,0 1.36001,-0.84828 2.07805,-2.0732 l 1.75273,-2.99082 c 0.64173,-1.09472 0.64092,-2.56359 0.64092,-2.56359 z m 46.54246,0.20882 c 0,0 -1.37913,0.89364 -2.11204,2.16058 l -2.00035,3.46181 c -0.8201,1.41765 -0.99532,3.20933 -0.99532,3.20933 0,0 1.46188,-1.04397 2.28197,-2.46162 l 2.00522,-3.4618 c 0.73289,-1.26696 0.82052,-2.9083 0.82052,-2.9083 z m -40.75014,2.7578 c 0,0 -1.37915,0.87948 -2.11204,2.1363 l -2.00037,3.43266 c -0.8201,1.40632 -0.99533,3.1899 -0.99533,3.1899 0,0 1.46189,-1.03102 2.28197,-2.43732 l 2.00035,-3.43266 c 0.73291,-1.25684 0.82542,-2.88888 0.82542,-2.88888 z m 45.3772,1.96637 c 0,0 -1.2858,0.72115 -1.92753,1.81587 l -1.75275,2.99085 c -0.71803,1.2249 -0.79142,2.82573 -0.79142,2.82573 0,2e-5 1.36002,-0.84828 2.07806,-2.07318 l 1.75275,-2.99082 c 0.64171,-1.09472 0.64089,-2.56845 0.64089,-2.56845 z m -304.011824,0.49523 c -0.614394,-0.0791 -1.175994,0.35638 -1.25266,0.97107 -0.07606,0.61263 0.358534,1.17105 0.971056,1.24779 6.293382,0.7923 12.520446,0.41511 18.673323,0.0923 0.616621,-0.0323 1.090378,-0.55833 1.058438,-1.17498 -0.0323,-0.61662 -0.558331,-1.09039 -1.174979,-1.05844 -6.163567,0.32351 -12.252116,0.68051 -18.275178,-0.0775 z m 263.504434,0.29132 c 0,0 -1.73334,1.51362 -2.82091,3.39869 l -2.97142,5.14656 c -1.21691,2.10926 -1.78674,4.59306 -1.78674,4.59308 0,0 1.86135,-1.73612 3.07823,-3.84538 l 2.97145,-5.15143 c 1.08754,-1.88497 1.52939,-4.14152 1.52939,-4.14152 z m 11.91964,0.84969 c 0,0 2.39233,2.64913 5.36021,4.19493 l 7.30715,3.80652 c 3.19477,1.66385 6.96245,2.2237 6.96245,2.2237 0,0 -2.62186,-2.76405 -5.8166,-4.42799 l -7.30715,-3.80651 c -2.96791,-1.5458 -6.50606,-1.99065 -6.50606,-1.99065 z m -231.920979,6.39435 h -8.38988 c -0.616306,0.001 -1.115648,0.50041 -1.116716,1.11671 0.0011,0.6163 0.50041,1.11564 1.116716,1.11671 h 8.38988 c 0.616292,-0.001 1.115634,-0.50041 1.116702,-1.11671 -0.0011,-0.6163 -0.50041,-1.11564 -1.116702,-1.11671 z m 183.023699,0.31074 h -18.0227 c -0.61631,0.001 -1.11564,0.50041 -1.11672,1.1167 0.001,0.61631 0.50041,1.11565 1.11672,1.11672 h 18.0227 c 0.61631,-0.001 1.11565,-0.50041 1.11672,-1.11672 -0.001,-0.61629 -0.50041,-1.11563 -1.11672,-1.1167 z M 39.703531,167.4936 c -1.72063,8.1e-4 -3.512073,0.13102 -5.331066,0.31557 -0.613721,0.0624 -1.06118,0.60968 -1.000201,1.22354 0.06235,0.61371 0.609662,1.06117 1.223529,1.00019 5.67009,-0.57513 10.639169,-0.40619 13.473337,1.92755 0.477461,0.391 1.18136,0.32146 1.573112,-0.15538 0.391014,-0.47746 0.321479,-1.18137 -0.155362,-1.57312 -1.864642,-1.53539 -4.187406,-2.2869 -6.773083,-2.58299 -0.969646,-0.11113 -1.977901,-0.15586 -3.010266,-0.15536 z m 97.619769,0.93221 c -6.92206,0.078 -13.54773,1.18578 -19.69291,3.81623 -0.56909,0.24337 -0.83237,0.90268 -0.58749,1.47113 0.24338,0.56909 0.90268,0.83237 1.47112,0.58749 5.81994,-2.49119 12.13928,-3.56587 18.83842,-3.64144 0.6163,-0.0105 1.10917,-0.51495 1.10213,-1.13128 -0.0105,-0.61629 -0.51495,-1.10917 -1.13127,-1.10213 z m 170.90984,0.5972 c 0,0 -1.71518,1.59803 -2.77234,3.55403 l -2.88888,5.34563 c -1.18289,2.18865 -1.70905,4.72904 -1.70905,4.72904 0,0 1.83708,-1.83153 3.01996,-4.02016 l 2.88888,-5.34563 c 1.05717,-1.956 1.46143,-4.26291 1.46143,-4.26291 z m -133.2379,1.19437 c -1.97723,0.005 -3.35069,0.23541 -4.4183,0.62635 -1.42347,0.52134 -2.20894,1.32708 -2.87432,1.87411 -0.47684,0.39175 -0.54637,1.09566 -0.15536,1.57312 0.39175,0.47684 1.09565,0.54638 1.57312,0.15538 0.79877,-0.65674 1.23377,-1.13594 2.22855,-1.5003 0.99477,-0.36423 2.64288,-0.6153 5.69035,-0.4224 0.61682,0.0405 1.14956,-0.42703 1.18955,-1.04387 0.0405,-0.61682 -0.42703,-1.14955 -1.04387,-1.18955 -0.80416,-0.051 -1.53067,-0.0746 -2.18972,-0.0729 z m 138.18058,1.55856 c -3e-5,0 -1.64499,1.37385 -2.64127,3.11705 l -2.72381,4.76302 c -1.11487,1.95053 -1.58282,4.26778 -1.58282,4.26778 0,0 1.76431,-1.57923 2.87918,-3.52979 l 2.7238,-4.763 c 0.99636,-1.74319 1.34492,-3.85506 1.34492,-3.85506 z m -110.82609,0.0679 c -0.61678,-0.0376 -1.14721,0.43197 -1.18468,1.04875 -0.0376,0.61677 0.43197,1.14721 1.04875,1.18468 l 5.28252,0.31073 c 0.61677,0.0376 1.1472,-0.43198 1.18467,-1.04875 0.0376,-0.61678 -0.43197,-1.14722 -1.04874,-1.18468 z m -4.41827,0 h -9.63284 c -0.61629,0.001 -1.11563,0.50041 -1.1167,1.11671 0.001,0.61631 0.50041,1.11565 1.1167,1.11672 h 9.63284 c 0.61629,-0.001 1.11563,-0.50041 1.1167,-1.11672 -0.001,-0.6163 -0.50041,-1.11565 -1.1167,-1.11671 z m 119.62377,1.76732 c 0,0 -1.51928,1.20183 -2.38391,2.76264 l -2.35966,4.26291 c -0.96749,1.74644 -1.28665,3.85507 -1.28665,3.85507 0,0 1.62037,-1.38519 2.58785,-3.13163 l 2.36452,-4.26778 c 0.86463,-1.56081 1.07785,-3.48121 1.07785,-3.48121 z m -54.67987,0.71862 H 247.96 c -0.61629,0.001 -1.11563,0.50041 -1.1167,1.11671 0.001,0.6163 0.50041,1.11564 1.1167,1.11671 h 14.91536 c 0.61629,-0.001 1.11563,-0.50041 1.1167,-1.11671 -10e-4,-0.6163 -0.50041,-1.11564 -1.1167,-1.11671 z M 43.883899,174.9464 c -5.758159,-0.005 -9.578556,1.39032 -12.963516,2.89858 -0.562431,0.25269 -0.814349,0.91284 -0.563235,1.476 0.252697,0.56243 0.912845,0.81435 1.476001,0.56322 3.397127,-1.51368 6.859741,-2.79424 12.575125,-2.69953 0.616358,0.0105 1.124453,-0.48097 1.136132,-1.09729 0.01055,-0.61635 -0.480967,-1.12445 -1.097299,-1.13613 -0.189924,-0.003 -0.377463,-0.005 -0.563208,-0.005 z m 278.118761,0.57292 c 0,0 -1.28582,0.71632 -1.92753,1.81101 l -1.75275,2.99085 c -0.71805,1.2249 -0.79142,2.82576 -0.79142,2.82576 0,0 1.36002,-0.84831 2.07806,-2.07321 l 1.75273,-2.99082 c 0.64173,-1.09472 0.64091,-2.56359 0.64091,-2.56359 z m -51.40261,6.57887 -8.07914,0.31073 c -0.61648,0.0249 -1.09655,0.54389 -1.073,1.16042 0.0249,0.61647 0.54388,1.09654 1.16041,1.07301 l 8.07914,-0.31073 c 0.61648,-0.0249 1.09655,-0.5439 1.07301,-1.16042 -0.0248,-0.61647 -0.54389,-1.09656 -1.16042,-1.07301 z"
     id="path2"
     inkscape:connector-curvature="0" />
</svg>
